<svg id="Layer_1" data-name="Layer 1" xmlns="http://www.w3.org/2000/svg" viewBox="0 0 421.46 156.46"><defs><style>.cls-1{fill:#e7b92c;}.cls-2{fill:#156da6;}.cls-3{fill:#2193d0;}.cls-4{fill:#b91a1f;}</style></defs><polygon class="cls-1" points="103.83 48.21 125.81 48.21 106.35 15.73 95.3 34.57 103.83 48.21"/><path class="cls-2" d="M105.33,78.46l-4.82-7H95.18v7H89.4v-25h10.82a13.91,13.91,0,0,1,5.77,1.1,8.29,8.29,0,0,1,5.08,8,8.15,8.15,0,0,1-5.14,7.89l5.61,8ZM103.86,59.3a6.07,6.07,0,0,0-4-1.12H95.18v8.71H99.9a6,6,0,0,0,4-1.14,4.5,4.5,0,0,0,0-6.45Z"/><path class="cls-2" d="M136.11,70.43H121.57a4.51,4.51,0,0,0,1.86,2.82,6.14,6.14,0,0,0,3.64,1,7.31,7.31,0,0,0,2.66-.44,6.49,6.49,0,0,0,2.16-1.41l3,3.21c-1.81,2.07-4.46,3.11-7.93,3.11a12.48,12.48,0,0,1-5.75-1.27A9.35,9.35,0,0,1,117.32,74a9.72,9.72,0,0,1-1.35-5.1,9.84,9.84,0,0,1,1.33-5.09A9.49,9.49,0,0,1,121,60.23,10.87,10.87,0,0,1,126.21,59a10.71,10.71,0,0,1,5.11,1.21,8.9,8.9,0,0,1,3.59,3.48,10.38,10.38,0,0,1,1.3,5.27C136.21,69,136.18,69.5,136.11,70.43Zm-13-6.18a4.53,4.53,0,0,0-1.57,2.93H131a4.56,4.56,0,0,0-1.57-2.91,4.65,4.65,0,0,0-3.14-1.09A4.83,4.83,0,0,0,123.07,64.25Z"/><path class="cls-2" d="M148.17,59.68h4.93V64h-4.78v14.5h-5.57V64h-3V59.68h3v-.86a7,7,0,0,1,1.94-5.21,7.45,7.45,0,0,1,5.49-1.93,10.13,10.13,0,0,1,2.37.27,5.63,5.63,0,0,1,1.87.77l-1.46,4a3.82,3.82,0,0,0-2.25-.68c-1.69,0-2.54.93-2.54,2.79Z"/><path class="cls-2" d="M168.9,59.68a10,10,0,0,1,3.92-.71v5.14c-.62,0-1-.07-1.25-.07a5.14,5.14,0,0,0-3.76,1.33,5.46,5.46,0,0,0-1.35,4v9.07h-5.57V59.25h5.32v2.54A6.17,6.17,0,0,1,168.9,59.68Z"/><path class="cls-2" d="M178.56,55.68a3,3,0,0,1,0-4.43,4,4,0,0,1,5,0,2.72,2.72,0,0,1,1,2.14,3,3,0,0,1-1,2.3,3.47,3.47,0,0,1-2.5.91A3.53,3.53,0,0,1,178.56,55.68Zm-.28,3.57h5.57V78.46h-5.57Z"/><path class="cls-2" d="M211,59.25v16q0,5.28-2.75,7.86t-8,2.57a20.16,20.16,0,0,1-5.28-.68,11.39,11.39,0,0,1-4.14-2L193,79a9,9,0,0,0,3.07,1.59,12,12,0,0,0,3.71.59,6,6,0,0,0,4.27-1.3,5.2,5.2,0,0,0,1.38-4v-.82a7.79,7.79,0,0,1-6.07,2.39,10.09,10.09,0,0,1-4.84-1.16A8.74,8.74,0,0,1,191,73.11a9.8,9.8,0,0,1,0-9.72,8.74,8.74,0,0,1,3.48-3.26A10.09,10.09,0,0,1,199.35,59a7.6,7.6,0,0,1,6.35,2.75V59.25Zm-6.91,12.41a4.83,4.83,0,0,0,0-6.82,5.13,5.13,0,0,0-3.63-1.3,5.19,5.19,0,0,0-3.64,1.3,4.78,4.78,0,0,0,0,6.82,5.19,5.19,0,0,0,3.64,1.3A5.13,5.13,0,0,0,204.08,71.66Z"/><path class="cls-2" d="M237,70.43H222.48a4.55,4.55,0,0,0,1.86,2.82,6.16,6.16,0,0,0,3.64,1,7.31,7.31,0,0,0,2.66-.44,6.53,6.53,0,0,0,2.17-1.41l3,3.21q-2.72,3.1-7.93,3.11a12.51,12.51,0,0,1-5.75-1.27A9.26,9.26,0,0,1,218.24,74a9.63,9.63,0,0,1-1.36-5.1,9.75,9.75,0,0,1,1.34-5.09,9.46,9.46,0,0,1,3.67-3.54A10.88,10.88,0,0,1,227.13,59a10.67,10.67,0,0,1,5.1,1.21,8.84,8.84,0,0,1,3.59,3.48,10.38,10.38,0,0,1,1.31,5.27C237.13,69,237.09,69.5,237,70.43Zm-13-6.18a4.58,4.58,0,0,0-1.57,2.93h9.47a4.57,4.57,0,0,0-1.58-2.91,4.65,4.65,0,0,0-3.14-1.09A4.83,4.83,0,0,0,224,64.25Z"/><path class="cls-2" d="M251,59.68a9.92,9.92,0,0,1,3.91-.71v5.14c-.62,0-1-.07-1.25-.07a5.13,5.13,0,0,0-3.75,1.33,5.46,5.46,0,0,0-1.36,4v9.07H243V59.25h5.32v2.54A6.25,6.25,0,0,1,251,59.68Z"/><path class="cls-2" d="M274.87,61.09c1.59,1.42,2.39,3.55,2.39,6.41v11h-5.21V76.07q-1.57,2.69-5.86,2.68a9.13,9.13,0,0,1-3.84-.75,5.73,5.73,0,0,1-2.48-2.07,5.39,5.39,0,0,1-.85-3,5,5,0,0,1,2-4.22q2-1.53,6.23-1.53h4.43a3.52,3.52,0,0,0-1.11-2.8,4.83,4.83,0,0,0-3.32-1,9.67,9.67,0,0,0-3,.48,8.11,8.11,0,0,0-2.52,1.31l-2-3.89a12.13,12.13,0,0,1,3.77-1.72A17,17,0,0,1,268,59C271,59,273.28,59.67,274.87,61.09Zm-4.75,13.25a3.6,3.6,0,0,0,1.57-2v-2h-3.82c-2.28,0-3.43.75-3.43,2.25a2,2,0,0,0,.84,1.69,3.77,3.77,0,0,0,2.31.63A4.85,4.85,0,0,0,270.12,74.34Z"/><path class="cls-2" d="M288.42,77.48a9.69,9.69,0,0,1,0-17.25A11.87,11.87,0,0,1,293.94,59a10.74,10.74,0,0,1,5.3,1.26,7.51,7.51,0,0,1,3.3,3.63l-4.32,2.32a4.71,4.71,0,0,0-4.32-2.64A4.88,4.88,0,0,0,290.3,65a6,6,0,0,0,0,7.79,4.88,4.88,0,0,0,3.6,1.43,4.66,4.66,0,0,0,4.32-2.64l4.32,2.35a7.56,7.56,0,0,1-3.3,3.57,10.54,10.54,0,0,1-5.3,1.29A11.76,11.76,0,0,1,288.42,77.48Z"/><path class="cls-2" d="M308.19,55.68a3,3,0,0,1,0-4.43,3.54,3.54,0,0,1,2.5-.89,3.6,3.6,0,0,1,2.5.86,2.74,2.74,0,0,1,1,2.14,3,3,0,0,1-1,2.3,3.92,3.92,0,0,1-5,0Zm-.29,3.57h5.57V78.46H307.9Z"/><path class="cls-2" d="M324.49,77.48A9.42,9.42,0,0,1,320.72,74a10.26,10.26,0,0,1,0-10.21,9.42,9.42,0,0,1,3.77-3.52,12.35,12.35,0,0,1,10.87,0,9.43,9.43,0,0,1,3.75,3.52,10.26,10.26,0,0,1,0,10.21,9.43,9.43,0,0,1-3.75,3.52,12.26,12.26,0,0,1-10.87,0Zm9-4.75a6.17,6.17,0,0,0,0-7.75,5,5,0,0,0-7.05,0,6.1,6.1,0,0,0,0,7.75,5,5,0,0,0,7.05,0Zm-2-21.08h6L331,56.79h-4.36Z"/><path class="cls-2" d="M363.77,61.11Q366,63.26,366,67.46v11h-5.57V68.32a5,5,0,0,0-1-3.41,3.65,3.65,0,0,0-2.89-1.12,4.44,4.44,0,0,0-3.36,1.3A5.41,5.41,0,0,0,351.89,69v9.5h-5.57V59.25h5.32V61.5a7.42,7.42,0,0,1,2.75-1.87A9.62,9.62,0,0,1,358,59,7.92,7.92,0,0,1,363.77,61.11Z"/><path class="cls-2" d="M321.44,131.4l-.07-27.22L308,126.6h-4.73L290,104.76V131.4h-9.85V86h8.68l17,28.18L322.54,86h8.62l.13,45.36Z"/><path class="cls-2" d="M337.79,129.16A22.58,22.58,0,0,1,329,120.8a24.35,24.35,0,0,1,0-24.17,22.58,22.58,0,0,1,8.81-8.36,28.15,28.15,0,0,1,23.26-.94,21.44,21.44,0,0,1,8,6l-6.74,6.22a14.5,14.5,0,0,0-11.41-5.31,15.12,15.12,0,0,0-7.51,1.85,13.17,13.17,0,0,0-5.16,5.15,16.27,16.27,0,0,0,0,15,13.11,13.11,0,0,0,5.16,5.15,15,15,0,0,0,7.51,1.85,14.42,14.42,0,0,0,11.41-5.38l6.74,6.22a20.93,20.93,0,0,1-8,6,26.71,26.71,0,0,1-10.69,2.07A26.06,26.06,0,0,1,337.79,129.16Z"/><polygon class="cls-3" points="23.42 11.09 41.7 11.09 41.7 35.84 23.42 66.65 23.42 11.09"/><polygon class="cls-4" points="58.99 15.73 77.65 15.73 34.24 93.06 14 93.06 58.99 15.73"/><polygon class="cls-4" points="51.25 77.59 70.07 77.59 106.35 15.73 85.24 15.73 51.25 77.59"/><path class="cls-2" d="M368.87,113.21v2.45h-9.82v-2l5-4.73a5.18,5.18,0,0,0,1.08-1.31,2.36,2.36,0,0,0,.28-1.09,1.42,1.42,0,0,0-.53-1.19,2.45,2.45,0,0,0-1.55-.42,3.66,3.66,0,0,0-1.54.32,2.92,2.92,0,0,0-1.15,1l-2.19-1.41a5.17,5.17,0,0,1,2.1-1.78,7.09,7.09,0,0,1,3.06-.64,6.21,6.21,0,0,1,2.53.48,3.85,3.85,0,0,1,1.69,1.33,3.5,3.5,0,0,1,.6,2,4.48,4.48,0,0,1-.44,2,7.57,7.57,0,0,1-1.73,2.12l-3,2.82Z"/><path class="cls-2" d="M380.45,108a4.06,4.06,0,0,1,1.62,1.42,3.87,3.87,0,0,1,.59,2.13,4.09,4.09,0,0,1-.65,2.28,4.15,4.15,0,0,1-1.77,1.51,5.83,5.83,0,0,1-2.5.53,5.54,5.54,0,0,1-4.27-1.67,6.8,6.8,0,0,1-1.54-4.77,8,8,0,0,1,.84-3.79,5.72,5.72,0,0,1,2.33-2.39,7.14,7.14,0,0,1,3.46-.82,8.1,8.1,0,0,1,2,.24,5.15,5.15,0,0,1,1.63.66l-1.12,2.2a4.27,4.27,0,0,0-2.43-.65,3.53,3.53,0,0,0-2.61,1,4,4,0,0,0-1,2.8,4.31,4.31,0,0,1,3.21-1.15A5.1,5.1,0,0,1,380.45,108Zm-1.31,5.11a1.95,1.95,0,0,0,0-2.83,2.29,2.29,0,0,0-1.6-.53,2.4,2.4,0,0,0-1.62.54,1.88,1.88,0,0,0,0,2.8,2.41,2.41,0,0,0,1.67.53A2.33,2.33,0,0,0,379.14,113.12Z"/><path class="cls-2" d="M388.3,115.08a5.29,5.29,0,0,1-2-2.31,9.41,9.41,0,0,1,0-7.22,5.31,5.31,0,0,1,9.7,0,9.41,9.41,0,0,1,0,7.22,5.41,5.41,0,0,1-7.73,2.31Zm4.74-2.76a7.66,7.66,0,0,0,0-6.31,2.2,2.2,0,0,0-3.71,0,7.66,7.66,0,0,0,0,6.31,2.2,2.2,0,0,0,3.71,0Z"/><path class="cls-2" d="M408.57,109.23a3.53,3.53,0,0,1,.91,2.46,3.82,3.82,0,0,1-.6,2.08,4.15,4.15,0,0,1-1.81,1.54,7,7,0,0,1-3,.57,10.33,10.33,0,0,1-2.7-.36,7.08,7.08,0,0,1-2.25-1l1.17-2.3a5.61,5.61,0,0,0,1.71.86,6.79,6.79,0,0,0,2,.31,3.17,3.17,0,0,0,1.78-.44,1.4,1.4,0,0,0,.65-1.23c0-1.07-.81-1.6-2.43-1.6h-1.37v-2l2.67-3h-5.53v-2.41h9.09v2L406,108A4.37,4.37,0,0,1,408.57,109.23Z"/></svg>